<svg width="693" height="234" viewBox="0 0 693 234" xmlns="http://www.w3.org/2000/svg"><title>World_Map_Oh_Dots</title><g transform="translate(0 -36)" fill="#777" fill-rule="evenodd" opacity=".319"><ellipse cx="3.113" cy="75.186" rx="2.821" ry="2.978"/><ellipse cx="3.113" cy="84.119" rx="2.821" ry="2.978"/><ellipse cx="3.113" cy="93.052" rx="2.821" ry="2.978"/><ellipse cx="3.113" cy="101.985" rx="2.821" ry="2.978"/><ellipse cx="3.113" cy="119.85" rx="2.821" ry="2.978"/><ellipse cx="12.05" cy="67.254" rx="2.821" ry="2.978"/><ellipse cx="12.05" cy="76.186" rx="2.821" ry="2.978"/><ellipse cx="12.05" cy="85.119" rx="2.821" ry="2.978"/><ellipse cx="12.05" cy="94.052" rx="2.821" ry="2.978"/><ellipse cx="12.05" cy="102.985" rx="2.821" ry="2.978"/><ellipse cx="12.05" cy="111.918" rx="2.821" ry="2.978"/><ellipse cx="20.986" cy="67.254" rx="2.821" ry="2.978"/><ellipse cx="20.986" cy="76.186" rx="2.821" ry="2.978"/><ellipse cx="20.986" cy="85.119" rx="2.821" ry="2.978"/><ellipse cx="20.986" cy="94.052" rx="2.821" ry="2.978"/><ellipse cx="20.986" cy="102.985" rx="2.821" ry="2.978"/><ellipse cx="20.986" cy="111.918" rx="2.821" ry="2.978"/><ellipse cx="29.922" cy="67.254" rx="2.821" ry="2.978"/><ellipse cx="29.922" cy="76.186" rx="2.821" ry="2.978"/><ellipse cx="29.922" cy="85.119" rx="2.821" ry="2.978"/><ellipse cx="29.922" cy="94.052" rx="2.821" ry="2.978"/><ellipse cx="29.922" cy="102.985" rx="2.821" ry="2.978"/><ellipse cx="29.922" cy="111.918" rx="2.821" ry="2.978"/><ellipse cx="39.017" cy="67.319" rx="2.978" ry="3.037"/><ellipse cx="39.017" cy="76.43" rx="2.978" ry="3.037"/><ellipse cx="39.017" cy="85.541" rx="2.978" ry="3.037"/><ellipse cx="39.017" cy="94.653" rx="2.978" ry="3.037"/><ellipse cx="48.111" cy="67.331" rx="2.821" ry="3.049"/><ellipse cx="48.111" cy="76.476" rx="2.821" ry="3.049"/><ellipse cx="48.111" cy="85.622" rx="2.821" ry="3.049"/><ellipse cx="48.111" cy="94.768" rx="2.821" ry="3.049"/><ellipse cx="48.111" cy="103.913" rx="2.821" ry="3.049"/><ellipse cx="58.047" cy="75.283" rx="2.821" ry="3.068"/><ellipse cx="58.047" cy="84.486" rx="2.821" ry="3.068"/><ellipse cx="58.047" cy="93.69" rx="2.821" ry="3.068"/><ellipse cx="58.047" cy="102.894" rx="2.821" ry="3.068"/><ellipse cx="65.984" cy="75.262" rx="2.821" ry="3.049"/><ellipse cx="65.984" cy="84.408" rx="2.821" ry="3.049"/><ellipse cx="65.984" cy="93.553" rx="2.821" ry="3.049"/><ellipse cx="65.984" cy="102.699" rx="2.821" ry="3.049"/><ellipse cx="65.984" cy="111.844" rx="2.821" ry="3.049"/><ellipse cx="74.92" cy="67.308" rx="2.821" ry="3.027"/><ellipse cx="74.92" cy="76.389" rx="2.821" ry="3.027"/><ellipse cx="74.92" cy="85.471" rx="2.821" ry="3.027"/><ellipse cx="74.92" cy="94.553" rx="2.821" ry="3.027"/><ellipse cx="74.92" cy="103.635" rx="2.821" ry="3.027"/><ellipse cx="74.92" cy="112.716" rx="2.821" ry="3.027"/><ellipse cx="74.92" cy="121.798" rx="2.821" ry="3.027"/><ellipse cx="85.015" cy="58.039" rx="2.978" ry="3.029"/><ellipse cx="85.015" cy="67.125" rx="2.978" ry="3.029"/><ellipse cx="85.015" cy="76.211" rx="2.978" ry="3.029"/><ellipse cx="85.015" cy="85.297" rx="2.978" ry="3.029"/><ellipse cx="85.015" cy="94.383" rx="2.978" ry="3.029"/><ellipse cx="85.015" cy="103.47" rx="2.978" ry="3.029"/><ellipse cx="85.015" cy="112.556" rx="2.978" ry="3.029"/><ellipse cx="85.015" cy="121.642" rx="2.978" ry="3.029"/><ellipse cx="85.015" cy="130.728" rx="2.978" ry="3.029"/><ellipse cx="94.109" cy="39.161" rx="2.821" ry="3.015"/><ellipse cx="94.109" cy="48.208" rx="2.821" ry="3.015"/><ellipse cx="94.109" cy="57.254" rx="2.821" ry="3.015"/><ellipse cx="94.109" cy="75.346" rx="2.821" ry="3.015"/><ellipse cx="94.109" cy="84.392" rx="2.821" ry="3.015"/><ellipse cx="94.109" cy="93.438" rx="2.821" ry="3.015"/><ellipse cx="94.109" cy="102.485" rx="2.821" ry="3.015"/><ellipse cx="94.109" cy="111.531" rx="2.821" ry="3.015"/><ellipse cx="94.109" cy="120.577" rx="2.821" ry="3.015"/><ellipse cx="94.109" cy="129.623" rx="2.821" ry="3.015"/><ellipse cx="94.109" cy="138.669" rx="2.821" ry="3.015"/><ellipse cx="94.109" cy="147.716" rx="2.821" ry="3.015"/><ellipse cx="94.109" cy="156.762" rx="2.821" ry="3.015"/><ellipse cx="94.109" cy="165.808" rx="2.821" ry="3.015"/><ellipse cx="103.045" cy="39.159" rx="2.821" ry="3.013"/><ellipse cx="103.045" cy="48.198" rx="2.821" ry="3.013"/><ellipse cx="103.045" cy="57.237" rx="2.821" ry="3.013"/><ellipse cx="103.045" cy="66.276" rx="2.821" ry="3.013"/><ellipse cx="103.045" cy="75.314" rx="2.821" ry="3.013"/><ellipse cx="103.045" cy="84.353" rx="2.821" ry="3.013"/><ellipse cx="103.045" cy="93.392" rx="2.821" ry="3.013"/><ellipse cx="103.045" cy="102.431" rx="2.821" ry="3.013"/><ellipse cx="103.045" cy="111.47" rx="2.821" ry="3.013"/><ellipse cx="103.045" cy="120.509" rx="2.821" ry="3.013"/><ellipse cx="103.045" cy="129.548" rx="2.821" ry="3.013"/><ellipse cx="103.045" cy="138.587" rx="2.821" ry="3.013"/><ellipse cx="103.045" cy="147.626" rx="2.821" ry="3.013"/><ellipse cx="103.045" cy="156.665" rx="2.821" ry="3.013"/><ellipse cx="103.045" cy="165.704" rx="2.821" ry="3.013"/><ellipse cx="103.045" cy="174.742" rx="2.821" ry="3.013"/><ellipse cx="110.981" cy="39.161" rx="2.821" ry="3.015"/><ellipse cx="110.981" cy="48.207" rx="2.821" ry="3.015"/><ellipse cx="110.981" cy="57.253" rx="2.821" ry="3.015"/><ellipse cx="110.981" cy="66.299" rx="2.821" ry="3.015"/><ellipse cx="110.981" cy="75.345" rx="2.821" ry="3.015"/><ellipse cx="110.981" cy="84.391" rx="2.821" ry="3.015"/><ellipse cx="110.981" cy="93.437" rx="2.821" ry="3.015"/><ellipse cx="110.981" cy="102.483" rx="2.821" ry="3.015"/><ellipse cx="110.981" cy="111.528" rx="2.821" ry="3.015"/><ellipse cx="110.981" cy="120.574" rx="2.821" ry="3.015"/><ellipse cx="110.981" cy="129.62" rx="2.821" ry="3.015"/><ellipse cx="110.981" cy="138.666" rx="2.821" ry="3.015"/><ellipse cx="110.981" cy="147.712" rx="2.821" ry="3.015"/><ellipse cx="110.981" cy="156.758" rx="2.821" ry="3.015"/><ellipse cx="110.981" cy="165.804" rx="2.821" ry="3.015"/><ellipse cx="110.981" cy="174.85" rx="2.821" ry="3.015"/><ellipse cx="110.981" cy="183.896" rx="2.821" ry="3.015"/><ellipse cx="110.981" cy="192.941" rx="2.821" ry="3.015"/><ellipse cx="120.918" cy="48.096" rx="2.821" ry="3.018"/><ellipse cx="120.918" cy="57.148" rx="2.821" ry="3.018"/><ellipse cx="120.918" cy="66.201" rx="2.821" ry="3.018"/><ellipse cx="120.918" cy="75.254" rx="2.821" ry="3.018"/><ellipse cx="120.918" cy="84.306" rx="2.821" ry="3.018"/><ellipse cx="120.918" cy="93.359" rx="2.821" ry="3.018"/><ellipse cx="120.918" cy="102.412" rx="2.821" ry="3.018"/><ellipse cx="120.918" cy="111.465" rx="2.821" ry="3.018"/><ellipse cx="120.918" cy="120.517" rx="2.821" ry="3.018"/><ellipse cx="120.918" cy="129.57" rx="2.821" ry="3.018"/><ellipse cx="120.918" cy="138.623" rx="2.821" ry="3.018"/><ellipse cx="120.918" cy="147.676" rx="2.821" ry="3.018"/><ellipse cx="120.918" cy="156.729" rx="2.821" ry="3.018"/><ellipse cx="120.918" cy="165.781" rx="2.821" ry="3.018"/><ellipse cx="120.918" cy="174.834" rx="2.821" ry="3.018"/><ellipse cx="120.918" cy="183.887" rx="2.821" ry="3.018"/><ellipse cx="120.918" cy="192.939" rx="2.821" ry="3.018"/><ellipse cx="130.013" cy="67.292" rx="2.978" ry="3.013"/><ellipse cx="130.013" cy="76.331" rx="2.978" ry="3.013"/><ellipse cx="130.013" cy="85.37" rx="2.978" ry="3.013"/><ellipse cx="130.013" cy="94.409" rx="2.978" ry="3.013"/><ellipse cx="130.013" cy="103.448" rx="2.978" ry="3.013"/><ellipse cx="130.013" cy="112.487" rx="2.978" ry="3.013"/><ellipse cx="130.013" cy="121.526" rx="2.978" ry="3.013"/><ellipse cx="130.013" cy="130.565" rx="2.978" ry="3.013"/><ellipse cx="130.013" cy="139.603" rx="2.978" ry="3.013"/><ellipse cx="130.013" cy="148.642" rx="2.978" ry="3.013"/><ellipse cx="130.013" cy="157.682" rx="2.978" ry="3.013"/><ellipse cx="130.013" cy="166.72" rx="2.978" ry="3.013"/><ellipse cx="130.013" cy="175.759" rx="2.978" ry="3.013"/><ellipse cx="130.013" cy="184.798" rx="2.978" ry="3.013"/><ellipse cx="130.013" cy="193.837" rx="2.978" ry="3.013"/><ellipse cx="130.013" cy="202.876" rx="2.978" ry="3.013"/><ellipse cx="139.106" cy="48.093" rx="2.821" ry="3.015"/><ellipse cx="139.106" cy="57.139" rx="2.821" ry="3.015"/><ellipse cx="139.106" cy="66.185" rx="2.821" ry="3.015"/><ellipse cx="139.106" cy="75.231" rx="2.821" ry="3.015"/><ellipse cx="139.106" cy="84.277" rx="2.821" ry="3.015"/><ellipse cx="139.106" cy="93.323" rx="2.821" ry="3.015"/><ellipse cx="139.106" cy="102.369" rx="2.821" ry="3.015"/><ellipse cx="139.106" cy="111.415" rx="2.821" ry="3.015"/><ellipse cx="139.106" cy="120.46" rx="2.821" ry="3.015"/><ellipse cx="139.106" cy="129.506" rx="2.821" ry="3.015"/><ellipse cx="139.106" cy="138.552" rx="2.821" ry="3.015"/><ellipse cx="139.106" cy="147.598" rx="2.821" ry="3.015"/><ellipse cx="139.106" cy="156.644" rx="2.821" ry="3.015"/><ellipse cx="139.106" cy="165.69" rx="2.821" ry="3.015"/><ellipse cx="139.106" cy="174.736" rx="2.821" ry="3.015"/><ellipse cx="139.106" cy="183.782" rx="2.821" ry="3.015"/><ellipse cx="139.106" cy="192.828" rx="2.821" ry="3.015"/><ellipse cx="139.106" cy="201.874" rx="2.821" ry="3.015"/><ellipse cx="148.043" cy="48.365" rx="2.821" ry="3.008"/><ellipse cx="148.043" cy="57.389" rx="2.821" ry="3.008"/><ellipse cx="148.043" cy="66.414" rx="2.821" ry="3.008"/><ellipse cx="148.043" cy="75.439" rx="2.821" ry="3.008"/><ellipse cx="148.043" cy="84.464" rx="2.821" ry="3.008"/><ellipse cx="148.043" cy="93.489" rx="2.821" ry="3.008"/><ellipse cx="148.043" cy="102.514" rx="2.821" ry="3.008"/><ellipse cx="148.043" cy="111.539" rx="2.821" ry="3.008"/><ellipse cx="148.043" cy="120.564" rx="2.821" ry="3.008"/><ellipse cx="148.043" cy="129.589" rx="2.821" ry="3.008"/><ellipse cx="148.043" cy="138.613" rx="2.821" ry="3.008"/><ellipse cx="148.043" cy="147.639" rx="2.821" ry="3.008"/><ellipse cx="148.043" cy="156.664" rx="2.821" ry="3.008"/><ellipse cx="148.043" cy="165.688" rx="2.821" ry="3.008"/><ellipse cx="148.043" cy="174.713" rx="2.821" ry="3.008"/><ellipse cx="148.043" cy="201.788" rx="2.821" ry="3.008"/><ellipse cx="148.043" cy="210.813" rx="2.821" ry="3.008"/><ellipse cx="155.979" cy="39.339" rx="2.821" ry="3.008"/><ellipse cx="155.979" cy="48.365" rx="2.821" ry="3.008"/><ellipse cx="155.979" cy="57.389" rx="2.821" ry="3.008"/><ellipse cx="155.979" cy="66.414" rx="2.821" ry="3.008"/><ellipse cx="155.979" cy="75.439" rx="2.821" ry="3.008"/><ellipse cx="155.979" cy="84.464" rx="2.821" ry="3.008"/><ellipse cx="155.979" cy="120.564" rx="2.821" ry="3.008"/><ellipse cx="155.979" cy="129.589" rx="2.821" ry="3.008"/><ellipse cx="155.979" cy="138.613" rx="2.821" ry="3.008"/><ellipse cx="155.979" cy="147.639" rx="2.821" ry="3.008"/><ellipse cx="155.979" cy="156.664" rx="2.821" ry="3.008"/><ellipse cx="155.979" cy="165.688" rx="2.821" ry="3.008"/><ellipse cx="155.979" cy="174.713" rx="2.821" ry="3.008"/><ellipse cx="155.979" cy="201.788" rx="2.821" ry="3.008"/><ellipse cx="155.979" cy="210.813" rx="2.821" ry="3.008"/><ellipse cx="165.915" cy="39.406" rx="2.821" ry="3.018"/><ellipse cx="165.915" cy="48.459" rx="2.821" ry="3.018"/><ellipse cx="165.915" cy="57.512" rx="2.821" ry="3.018"/><ellipse cx="165.915" cy="66.565" rx="2.821" ry="3.018"/><ellipse cx="165.915" cy="75.618" rx="2.821" ry="3.018"/><ellipse cx="165.915" cy="84.671" rx="2.821" ry="3.018"/><ellipse cx="165.915" cy="129.937" rx="2.821" ry="3.018"/><ellipse cx="165.915" cy="138.989" rx="2.821" ry="3.018"/><ellipse cx="165.915" cy="148.043" rx="2.821" ry="3.018"/><ellipse cx="165.915" cy="157.096" rx="2.821" ry="3.018"/><ellipse cx="165.915" cy="166.149" rx="2.821" ry="3.018"/><ellipse cx="165.915" cy="175.202" rx="2.821" ry="3.018"/><ellipse cx="165.915" cy="202.361" rx="2.821" ry="3.018"/><ellipse cx="165.915" cy="211.414" rx="2.821" ry="3.018"/><ellipse cx="165.915" cy="220.467" rx="2.821" ry="3.018"/><ellipse cx="165.915" cy="229.52" rx="2.821" ry="3.018"/><ellipse cx="165.915" cy="238.573" rx="2.821" ry="3.018"/><ellipse cx="165.915" cy="247.626" rx="2.821" ry="3.018"/><ellipse cx="165.915" cy="256.679" rx="2.821" ry="3.018"/><ellipse cx="165.915" cy="265.732" rx="2.821" ry="3.018"/><ellipse cx="175.01" cy="39.395" rx="2.978" ry="3.016"/><ellipse cx="175.01" cy="48.444" rx="2.978" ry="3.016"/><ellipse cx="175.01" cy="57.492" rx="2.978" ry="3.016"/><ellipse cx="175.01" cy="66.54" rx="2.978" ry="3.016"/><ellipse cx="175.01" cy="75.589" rx="2.978" ry="3.016"/><ellipse cx="175.01" cy="84.637" rx="2.978" ry="3.016"/><ellipse cx="175.01" cy="129.879" rx="2.978" ry="3.016"/><ellipse cx="175.01" cy="138.928" rx="2.978" ry="3.016"/><ellipse cx="175.01" cy="147.976" rx="2.978" ry="3.016"/><ellipse cx="175.01" cy="157.025" rx="2.978" ry="3.016"/><ellipse cx="175.01" cy="166.073" rx="2.978" ry="3.016"/><ellipse cx="175.01" cy="175.121" rx="2.978" ry="3.016"/><ellipse cx="175.01" cy="184.17" rx="2.978" ry="3.016"/><ellipse cx="175.01" cy="193.218" rx="2.978" ry="3.016"/><ellipse cx="175.01" cy="211.315" rx="2.978" ry="3.016"/><ellipse cx="175.01" cy="220.364" rx="2.978" ry="3.016"/><ellipse cx="175.01" cy="229.412" rx="2.978" ry="3.016"/><ellipse cx="175.01" cy="238.461" rx="2.978" ry="3.016"/><ellipse cx="175.01" cy="247.509" rx="2.978" ry="3.016"/><ellipse cx="175.01" cy="256.557" rx="2.978" ry="3.016"/><ellipse cx="175.01" cy="265.606" rx="2.978" ry="3.016"/><ellipse cx="184.104" cy="39.38" rx="2.821" ry="3.014"/><ellipse cx="184.104" cy="48.422" rx="2.821" ry="3.014"/><ellipse cx="184.104" cy="57.464" rx="2.821" ry="3.014"/><ellipse cx="184.104" cy="66.506" rx="2.821" ry="3.014"/><ellipse cx="184.104" cy="75.548" rx="2.821" ry="3.014"/><ellipse cx="184.104" cy="84.589" rx="2.821" ry="3.014"/><ellipse cx="184.104" cy="93.632" rx="2.821" ry="3.014"/><ellipse cx="184.104" cy="102.674" rx="2.821" ry="3.014"/><ellipse cx="184.104" cy="111.716" rx="2.821" ry="3.014"/><ellipse cx="184.104" cy="120.757" rx="2.821" ry="3.014"/><ellipse cx="184.104" cy="129.799" rx="2.821" ry="3.014"/><ellipse cx="184.104" cy="138.841" rx="2.821" ry="3.014"/><ellipse cx="184.104" cy="147.883" rx="2.821" ry="3.014"/><ellipse cx="184.104" cy="156.926" rx="2.821" ry="3.014"/><ellipse cx="184.104" cy="165.967" rx="2.821" ry="3.014"/><ellipse cx="184.104" cy="202.135" rx="2.821" ry="3.014"/><ellipse cx="184.104" cy="229.261" rx="2.821" ry="3.014"/><ellipse cx="184.104" cy="238.303" rx="2.821" ry="3.014"/><ellipse cx="184.104" cy="247.345" rx="2.821" ry="3.014"/><ellipse cx="184.104" cy="256.387" rx="2.821" ry="3.014"/><ellipse cx="184.104" cy="265.429" rx="2.821" ry="3.014"/><ellipse cx="193.04" cy="57.438" rx="2.821" ry="3.012"/><ellipse cx="193.04" cy="66.474" rx="2.821" ry="3.012"/><ellipse cx="193.04" cy="75.51" rx="2.821" ry="3.012"/><ellipse cx="193.04" cy="84.546" rx="2.821" ry="3.012"/><ellipse cx="193.04" cy="93.582" rx="2.821" ry="3.012"/><ellipse cx="193.04" cy="102.619" rx="2.821" ry="3.012"/><ellipse cx="193.04" cy="111.655" rx="2.821" ry="3.012"/><ellipse cx="193.04" cy="120.691" rx="2.821" ry="3.012"/><ellipse cx="193.04" cy="129.727" rx="2.821" ry="3.012"/><ellipse cx="193.04" cy="138.763" rx="2.821" ry="3.012"/><ellipse cx="193.04" cy="147.799" rx="2.821" ry="3.012"/><ellipse cx="193.04" cy="156.835" rx="2.821" ry="3.012"/><ellipse cx="193.04" cy="165.871" rx="2.821" ry="3.012"/><ellipse cx="193.04" cy="202.016" rx="2.821" ry="3.012"/><ellipse cx="193.04" cy="229.124" rx="2.821" ry="3.012"/><ellipse cx="193.04" cy="238.16" rx="2.821" ry="3.012"/><ellipse cx="193.04" cy="247.196" rx="2.821" ry="3.012"/><ellipse cx="193.04" cy="256.232" rx="2.821" ry="3.012"/><ellipse cx="193.04" cy="265.268" rx="2.821" ry="3.012"/><ellipse cx="201.977" cy="57.476" rx="2.821" ry="3.015"/><ellipse cx="201.977" cy="66.521" rx="2.821" ry="3.015"/><ellipse cx="201.977" cy="75.566" rx="2.821" ry="3.015"/><ellipse cx="201.977" cy="84.611" rx="2.821" ry="3.015"/><ellipse cx="201.977" cy="93.656" rx="2.821" ry="3.015"/><ellipse cx="201.977" cy="102.701" rx="2.821" ry="3.015"/><ellipse cx="201.977" cy="111.745" rx="2.821" ry="3.015"/><ellipse cx="201.977" cy="120.79" rx="2.821" ry="3.015"/><ellipse cx="201.977" cy="129.835" rx="2.821" ry="3.015"/><ellipse cx="201.977" cy="138.88" rx="2.821" ry="3.015"/><ellipse cx="201.977" cy="229.328" rx="2.821" ry="3.015"/><ellipse cx="201.977" cy="238.373" rx="2.821" ry="3.015"/><ellipse cx="201.977" cy="247.418" rx="2.821" ry="3.015"/><ellipse cx="201.977" cy="256.463" rx="2.821" ry="3.015"/><ellipse cx="201.977" cy="265.507" rx="2.821" ry="3.015"/><ellipse cx="210.913" cy="75.386" rx="2.821" ry="3.017"/><ellipse cx="210.913" cy="84.437" rx="2.821" ry="3.017"/><ellipse cx="210.913" cy="111.59" rx="2.821" ry="3.017"/><ellipse cx="210.913" cy="120.641" rx="2.821" ry="3.017"/><ellipse cx="210.913" cy="129.692" rx="2.821" ry="3.017"/><ellipse cx="210.913" cy="138.743" rx="2.821" ry="3.017"/><ellipse cx="210.913" cy="238.304" rx="2.821" ry="3.017"/><ellipse cx="210.913" cy="247.354" rx="2.821" ry="3.017"/><ellipse cx="210.913" cy="256.406" rx="2.821" ry="3.017"/><ellipse cx="210.913" cy="265.456" rx="2.821" ry="3.017"/><ellipse cx="220.008" cy="39.077" rx="2.978" ry="3.006"/><ellipse cx="220.008" cy="48.096" rx="2.978" ry="3.006"/><ellipse cx="220.008" cy="57.115" rx="2.978" ry="3.006"/><ellipse cx="220.008" cy="120.25" rx="2.978" ry="3.006"/><ellipse cx="220.008" cy="129.269" rx="2.978" ry="3.006"/><ellipse cx="220.008" cy="138.289" rx="2.978" ry="3.006"/><ellipse cx="220.008" cy="237.501" rx="2.978" ry="3.006"/><ellipse cx="220.008" cy="246.52" rx="2.978" ry="3.006"/><ellipse cx="220.008" cy="255.539" rx="2.978" ry="3.006"/><ellipse cx="220.008" cy="264.558" rx="2.978" ry="3.006"/><ellipse cx="229.101" cy="39.077" rx="2.821" ry="3.006"/><ellipse cx="229.101" cy="48.096" rx="2.821" ry="3.006"/><ellipse cx="229.101" cy="57.115" rx="2.821" ry="3.006"/><ellipse cx="229.101" cy="66.135" rx="2.821" ry="3.006"/><ellipse cx="229.101" cy="75.154" rx="2.821" ry="3.006"/><ellipse cx="229.101" cy="84.173" rx="2.821" ry="3.006"/><ellipse cx="229.101" cy="246.52" rx="2.821" ry="3.006"/><ellipse cx="229.101" cy="255.539" rx="2.821" ry="3.006"/><ellipse cx="229.101" cy="264.558" rx="2.821" ry="3.006"/><ellipse cx="238.038" cy="39.304" rx="2.821" ry="3.017"/><ellipse cx="238.038" cy="48.356" rx="2.821" ry="3.017"/><ellipse cx="238.038" cy="57.407" rx="2.821" ry="3.017"/><ellipse cx="238.038" cy="66.459" rx="2.821" ry="3.017"/><ellipse cx="238.038" cy="75.51" rx="2.821" ry="3.017"/><ellipse cx="238.038" cy="84.561" rx="2.821" ry="3.017"/><ellipse cx="238.038" cy="93.613" rx="2.821" ry="3.017"/><ellipse cx="238.038" cy="256.541" rx="2.821" ry="3.017"/><ellipse cx="238.038" cy="265.592" rx="2.821" ry="3.017"/><ellipse cx="246.974" cy="39.32" rx="2.821" ry="3.018"/><ellipse cx="246.974" cy="48.375" rx="2.821" ry="3.018"/><ellipse cx="246.974" cy="57.43" rx="2.821" ry="3.018"/><ellipse cx="246.974" cy="66.485" rx="2.821" ry="3.018"/><ellipse cx="246.974" cy="75.54" rx="2.821" ry="3.018"/><ellipse cx="246.974" cy="84.596" rx="2.821" ry="3.018"/><ellipse cx="246.974" cy="93.651" rx="2.821" ry="3.018"/><ellipse cx="246.974" cy="256.645" rx="2.821" ry="3.018"/><ellipse cx="246.974" cy="265.7" rx="2.821" ry="3.018"/><ellipse cx="255.911" cy="39.214" rx="2.821" ry="3.02"/><ellipse cx="255.911" cy="48.275" rx="2.821" ry="3.02"/><ellipse cx="255.911" cy="57.336" rx="2.821" ry="3.02"/><ellipse cx="255.911" cy="66.396" rx="2.821" ry="3.02"/><ellipse cx="255.911" cy="75.457" rx="2.821" ry="3.02"/><ellipse cx="255.911" cy="265.73" rx="2.821" ry="3.02"/><circle cx="266.005" cy="39.122" r="2.978"/><circle cx="266.005" cy="48.055" r="2.978"/><circle cx="266.005" cy="56.987" r="2.978"/><circle cx="266.005" cy="65.92" r="2.978"/><ellipse cx="275.099" cy="39.122" rx="2.821" ry="2.978"/><ellipse cx="275.099" cy="48.055" rx="2.821" ry="2.978"/><ellipse cx="275.099" cy="56.987" rx="2.821" ry="2.978"/><ellipse cx="275.099" cy="65.92" rx="2.821" ry="2.978"/><ellipse cx="275.099" cy="74.853" rx="2.821" ry="2.978"/><ellipse cx="283.035" cy="39.122" rx="2.821" ry="2.978"/><ellipse cx="283.035" cy="48.055" rx="2.821" ry="2.978"/><ellipse cx="283.035" cy="56.987" rx="2.821" ry="2.978"/><ellipse cx="283.035" cy="65.92" rx="2.821" ry="2.978"/><ellipse cx="283.035" cy="74.853" rx="2.821" ry="2.978"/><ellipse cx="291.972" cy="67.292" rx="2.821" ry="3.013"/><ellipse cx="291.972" cy="94.409" rx="2.821" ry="3.013"/><ellipse cx="291.972" cy="175.759" rx="2.821" ry="3.013"/><ellipse cx="291.972" cy="184.798" rx="2.821" ry="3.013"/><ellipse cx="291.972" cy="193.837" rx="2.821" ry="3.013"/><ellipse cx="291.972" cy="202.876" rx="2.821" ry="3.013"/><ellipse cx="301.908" cy="84.159" rx="2.821" ry="3.015"/><ellipse cx="301.908" cy="93.205" rx="2.821" ry="3.015"/><ellipse cx="301.908" cy="102.251" rx="2.821" ry="3.015"/><ellipse cx="301.908" cy="165.574" rx="2.821" ry="3.015"/><ellipse cx="301.908" cy="174.621" rx="2.821" ry="3.015"/><ellipse cx="301.908" cy="183.667" rx="2.821" ry="3.015"/><ellipse cx="301.908" cy="192.713" rx="2.821" ry="3.015"/><ellipse cx="301.908" cy="201.759" rx="2.821" ry="3.015"/><ellipse cx="301.908" cy="210.805" rx="2.821" ry="3.015"/><ellipse cx="311.003" cy="75.224" rx="2.978" ry="3.013"/><ellipse cx="311.003" cy="84.263" rx="2.978" ry="3.013"/><ellipse cx="311.003" cy="93.302" rx="2.978" ry="3.013"/><ellipse cx="311.003" cy="102.341" rx="2.978" ry="3.013"/><ellipse cx="311.003" cy="129.458" rx="2.978" ry="3.013"/><ellipse cx="311.003" cy="138.496" rx="2.978" ry="3.013"/><ellipse cx="311.003" cy="147.536" rx="2.978" ry="3.013"/><ellipse cx="311.003" cy="156.575" rx="2.978" ry="3.013"/><ellipse cx="311.003" cy="165.613" rx="2.978" ry="3.013"/><ellipse cx="311.003" cy="174.652" rx="2.978" ry="3.013"/><ellipse cx="311.003" cy="183.691" rx="2.978" ry="3.013"/><ellipse cx="311.003" cy="192.73" rx="2.978" ry="3.013"/><ellipse cx="311.003" cy="201.769" rx="2.978" ry="3.013"/><ellipse cx="311.003" cy="210.808" rx="2.978" ry="3.013"/><ellipse cx="320.097" cy="94.094" rx="2.821" ry="3.018"/><ellipse cx="320.097" cy="112.203" rx="2.821" ry="3.018"/><ellipse cx="320.097" cy="121.257" rx="2.821" ry="3.018"/><ellipse cx="320.097" cy="130.312" rx="2.821" ry="3.018"/><ellipse cx="320.097" cy="139.366" rx="2.821" ry="3.018"/><ellipse cx="320.097" cy="148.421" rx="2.821" ry="3.018"/><ellipse cx="320.097" cy="157.475" rx="2.821" ry="3.018"/><ellipse cx="320.097" cy="166.53" rx="2.821" ry="3.018"/><ellipse cx="320.097" cy="175.584" rx="2.821" ry="3.018"/><ellipse cx="320.097" cy="184.639" rx="2.821" ry="3.018"/><ellipse cx="320.097" cy="193.693" rx="2.821" ry="3.018"/><ellipse cx="320.097" cy="202.748" rx="2.821" ry="3.018"/><ellipse cx="320.097" cy="211.802" rx="2.821" ry="3.018"/><ellipse cx="328.033" cy="112.292" rx="2.821" ry="3.016"/><ellipse cx="328.033" cy="121.339" rx="2.821" ry="3.016"/><ellipse cx="328.033" cy="130.386" rx="2.821" ry="3.016"/><ellipse cx="328.033" cy="139.432" rx="2.821" ry="3.016"/><ellipse cx="328.033" cy="148.479" rx="2.821" ry="3.016"/><ellipse cx="328.033" cy="157.526" rx="2.821" ry="3.016"/><ellipse cx="328.033" cy="166.572" rx="2.821" ry="3.016"/><ellipse cx="328.033" cy="175.619" rx="2.821" ry="3.016"/><ellipse cx="328.033" cy="184.665" rx="2.821" ry="3.016"/><ellipse cx="328.033" cy="193.712" rx="2.821" ry="3.016"/><ellipse cx="328.033" cy="202.759" rx="2.821" ry="3.016"/><ellipse cx="328.033" cy="211.805" rx="2.821" ry="3.016"/><ellipse cx="337.969" cy="67.288" rx="2.821" ry="3.009"/><ellipse cx="337.969" cy="76.315" rx="2.821" ry="3.009"/><ellipse cx="337.969" cy="85.341" rx="2.821" ry="3.009"/><ellipse cx="337.969" cy="94.368" rx="2.821" ry="3.009"/><ellipse cx="337.969" cy="103.395" rx="2.821" ry="3.009"/><ellipse cx="337.969" cy="112.422" rx="2.821" ry="3.009"/><ellipse cx="337.969" cy="121.449" rx="2.821" ry="3.009"/><ellipse cx="337.969" cy="130.476" rx="2.821" ry="3.009"/><ellipse cx="337.969" cy="157.557" rx="2.821" ry="3.009"/><ellipse cx="337.969" cy="166.583" rx="2.821" ry="3.009"/><ellipse cx="337.969" cy="175.61" rx="2.821" ry="3.009"/><ellipse cx="337.969" cy="184.637" rx="2.821" ry="3.009"/><ellipse cx="337.969" cy="193.664" rx="2.821" ry="3.009"/><ellipse cx="337.969" cy="202.691" rx="2.821" ry="3.009"/><ellipse cx="337.969" cy="211.717" rx="2.821" ry="3.009"/><ellipse cx="337.969" cy="220.744" rx="2.821" ry="3.009"/><ellipse cx="346.906" cy="67.302" rx="2.821" ry="3.022"/><ellipse cx="346.906" cy="76.366" rx="2.821" ry="3.022"/><ellipse cx="346.906" cy="85.431" rx="2.821" ry="3.022"/><ellipse cx="346.906" cy="94.496" rx="2.821" ry="3.022"/><ellipse cx="346.906" cy="112.626" rx="2.821" ry="3.022"/><ellipse cx="346.906" cy="121.69" rx="2.821" ry="3.022"/><ellipse cx="346.906" cy="130.756" rx="2.821" ry="3.022"/><ellipse cx="346.906" cy="167.015" rx="2.821" ry="3.022"/><ellipse cx="346.906" cy="176.08" rx="2.821" ry="3.022"/><ellipse cx="346.906" cy="185.145" rx="2.821" ry="3.022"/><ellipse cx="346.906" cy="194.209" rx="2.821" ry="3.022"/><ellipse cx="346.906" cy="203.274" rx="2.821" ry="3.022"/><ellipse cx="346.906" cy="212.339" rx="2.821" ry="3.022"/><ellipse cx="346.906" cy="221.404" rx="2.821" ry="3.022"/><ellipse cx="346.906" cy="230.469" rx="2.821" ry="3.022"/><ellipse cx="346.906" cy="239.534" rx="2.821" ry="3.022"/><ellipse cx="346.906" cy="248.598" rx="2.821" ry="3.022"/><ellipse cx="346.906" cy="257.663" rx="2.821" ry="3.022"/><ellipse cx="346.906" cy="266.728" rx="2.821" ry="3.022"/><ellipse cx="356" cy="84.155" rx="2.978" ry="3.012"/><ellipse cx="356" cy="93.191" rx="2.978" ry="3.012"/><ellipse cx="356" cy="111.262" rx="2.978" ry="3.012"/><ellipse cx="356" cy="120.298" rx="2.978" ry="3.012"/><ellipse cx="356" cy="129.333" rx="2.978" ry="3.012"/><ellipse cx="356" cy="138.369" rx="2.978" ry="3.012"/><ellipse cx="356" cy="165.476" rx="2.978" ry="3.012"/><ellipse cx="356" cy="174.512" rx="2.978" ry="3.012"/><ellipse cx="356" cy="183.548" rx="2.978" ry="3.012"/><ellipse cx="356" cy="192.583" rx="2.978" ry="3.012"/><ellipse cx="356" cy="201.619" rx="2.978" ry="3.012"/><ellipse cx="356" cy="210.654" rx="2.978" ry="3.012"/><ellipse cx="356" cy="219.69" rx="2.978" ry="3.012"/><ellipse cx="356" cy="228.726" rx="2.978" ry="3.012"/><ellipse cx="356" cy="237.762" rx="2.978" ry="3.012"/><ellipse cx="356" cy="246.797" rx="2.978" ry="3.012"/><ellipse cx="356" cy="255.833" rx="2.978" ry="3.012"/><ellipse cx="356" cy="264.868" rx="2.978" ry="3.012"/><ellipse cx="365.094" cy="84.152" rx="2.821" ry="3.009"/><ellipse cx="365.094" cy="93.179" rx="2.821" ry="3.009"/><ellipse cx="365.094" cy="102.207" rx="2.821" ry="3.009"/><ellipse cx="365.094" cy="111.234" rx="2.821" ry="3.009"/><ellipse cx="365.094" cy="120.261" rx="2.821" ry="3.009"/><ellipse cx="365.094" cy="129.289" rx="2.821" ry="3.009"/><ellipse cx="365.094" cy="138.316" rx="2.821" ry="3.009"/><ellipse cx="365.094" cy="165.398" rx="2.821" ry="3.009"/><ellipse cx="365.094" cy="174.425" rx="2.821" ry="3.009"/><ellipse cx="365.094" cy="183.452" rx="2.821" ry="3.009"/><ellipse cx="365.094" cy="192.479" rx="2.821" ry="3.009"/><ellipse cx="365.094" cy="201.507" rx="2.821" ry="3.009"/><ellipse cx="365.094" cy="210.534" rx="2.821" ry="3.009"/><ellipse cx="365.094" cy="219.561" rx="2.821" ry="3.009"/><ellipse cx="365.094" cy="228.589" rx="2.821" ry="3.009"/><ellipse cx="365.094" cy="237.616" rx="2.821" ry="3.009"/><ellipse cx="365.094" cy="246.643" rx="2.821" ry="3.009"/><ellipse cx="365.094" cy="255.671" rx="2.821" ry="3.009"/><ellipse cx="365.094" cy="264.698" rx="2.821" ry="3.009"/><ellipse cx="373.031" cy="67.299" rx="2.821" ry="3.019"/><ellipse cx="373.031" cy="76.357" rx="2.821" ry="3.019"/><ellipse cx="373.031" cy="85.414" rx="2.821" ry="3.019"/><ellipse cx="373.031" cy="94.472" rx="2.821" ry="3.019"/><ellipse cx="373.031" cy="103.529" rx="2.821" ry="3.019"/><ellipse cx="373.031" cy="112.587" rx="2.821" ry="3.019"/><ellipse cx="373.031" cy="121.644" rx="2.821" ry="3.019"/><ellipse cx="373.031" cy="130.702" rx="2.821" ry="3.019"/><ellipse cx="373.031" cy="139.76" rx="2.821" ry="3.019"/><ellipse cx="373.031" cy="148.817" rx="2.821" ry="3.019"/><ellipse cx="373.031" cy="166.932" rx="2.821" ry="3.019"/><ellipse cx="373.031" cy="175.99" rx="2.821" ry="3.019"/><ellipse cx="373.031" cy="185.048" rx="2.821" ry="3.019"/><ellipse cx="373.031" cy="194.105" rx="2.821" ry="3.019"/><ellipse cx="373.031" cy="203.163" rx="2.821" ry="3.019"/><ellipse cx="373.031" cy="212.22" rx="2.821" ry="3.019"/><ellipse cx="373.031" cy="221.278" rx="2.821" ry="3.019"/><ellipse cx="373.031" cy="230.336" rx="2.821" ry="3.019"/><ellipse cx="373.031" cy="239.393" rx="2.821" ry="3.019"/><ellipse cx="373.031" cy="248.451" rx="2.821" ry="3.019"/><ellipse cx="373.031" cy="257.508" rx="2.821" ry="3.019"/><ellipse cx="373.031" cy="266.566" rx="2.821" ry="3.019"/><ellipse cx="382.967" cy="67.287" rx="2.821" ry="3.008"/><ellipse cx="382.967" cy="76.31" rx="2.821" ry="3.008"/><ellipse cx="382.967" cy="85.334" rx="2.821" ry="3.008"/><ellipse cx="382.967" cy="94.357" rx="2.821" ry="3.008"/><ellipse cx="382.967" cy="103.381" rx="2.821" ry="3.008"/><ellipse cx="382.967" cy="112.404" rx="2.821" ry="3.008"/><ellipse cx="382.967" cy="121.428" rx="2.821" ry="3.008"/><ellipse cx="382.967" cy="148.499" rx="2.821" ry="3.008"/><ellipse cx="382.967" cy="166.546" rx="2.821" ry="3.008"/><ellipse cx="382.967" cy="175.569" rx="2.821" ry="3.008"/><ellipse cx="382.967" cy="184.593" rx="2.821" ry="3.008"/><ellipse cx="382.967" cy="193.617" rx="2.821" ry="3.008"/><ellipse cx="382.967" cy="202.64" rx="2.821" ry="3.008"/><ellipse cx="382.967" cy="211.664" rx="2.821" ry="3.008"/><ellipse cx="382.967" cy="220.688" rx="2.821" ry="3.008"/><ellipse cx="382.967" cy="229.711" rx="2.821" ry="3.008"/><ellipse cx="382.967" cy="238.735" rx="2.821" ry="3.008"/><ellipse cx="382.967" cy="247.758" rx="2.821" ry="3.008"/><ellipse cx="382.967" cy="256.782" rx="2.821" ry="3.008"/><ellipse cx="382.967" cy="265.805" rx="2.821" ry="3.008"/><ellipse cx="391.903" cy="67.288" rx="2.821" ry="3.009"/><ellipse cx="391.903" cy="76.315" rx="2.821" ry="3.009"/><ellipse cx="391.903" cy="85.342" rx="2.821" ry="3.009"/><ellipse cx="391.903" cy="94.37" rx="2.821" ry="3.009"/><ellipse cx="391.903" cy="103.397" rx="2.821" ry="3.009"/><ellipse cx="391.903" cy="112.424" rx="2.821" ry="3.009"/><ellipse cx="391.903" cy="121.451" rx="2.821" ry="3.009"/><ellipse cx="391.903" cy="139.506" rx="2.821" ry="3.009"/><ellipse cx="391.903" cy="148.534" rx="2.821" ry="3.009"/><ellipse cx="391.903" cy="166.588" rx="2.821" ry="3.009"/><ellipse cx="391.903" cy="175.615" rx="2.821" ry="3.009"/><ellipse cx="391.903" cy="184.643" rx="2.821" ry="3.009"/><ellipse cx="391.903" cy="193.67" rx="2.821" ry="3.009"/><ellipse cx="391.903" cy="202.697" rx="2.821" ry="3.009"/><ellipse cx="391.903" cy="211.724" rx="2.821" ry="3.009"/><ellipse cx="391.903" cy="220.752" rx="2.821" ry="3.009"/><ellipse cx="391.903" cy="229.779" rx="2.821" ry="3.009"/><ellipse cx="391.903" cy="238.806" rx="2.821" ry="3.009"/><ellipse cx="391.903" cy="247.834" rx="2.821" ry="3.009"/><ellipse cx="391.903" cy="256.861" rx="2.821" ry="3.009"/><ellipse cx="391.903" cy="265.888" rx="2.821" ry="3.009"/><ellipse cx="400.998" cy="67.3" rx="2.978" ry="3.02"/><ellipse cx="400.998" cy="76.359" rx="2.978" ry="3.02"/><ellipse cx="400.998" cy="85.418" rx="2.978" ry="3.02"/><ellipse cx="400.998" cy="94.477" rx="2.978" ry="3.02"/><ellipse cx="400.998" cy="103.537" rx="2.978" ry="3.02"/><ellipse cx="400.998" cy="112.596" rx="2.978" ry="3.02"/><ellipse cx="400.998" cy="121.655" rx="2.978" ry="3.02"/><ellipse cx="400.998" cy="130.714" rx="2.978" ry="3.02"/><ellipse cx="400.998" cy="139.773" rx="2.978" ry="3.02"/><ellipse cx="400.998" cy="148.833" rx="2.978" ry="3.02"/><ellipse cx="400.998" cy="157.892" rx="2.978" ry="3.02"/><ellipse cx="400.998" cy="166.951" rx="2.978" ry="3.02"/><ellipse cx="400.998" cy="176.01" rx="2.978" ry="3.02"/><ellipse cx="400.998" cy="185.07" rx="2.978" ry="3.02"/><ellipse cx="400.998" cy="194.129" rx="2.978" ry="3.02"/><ellipse cx="400.998" cy="203.188" rx="2.978" ry="3.02"/><ellipse cx="400.998" cy="212.247" rx="2.978" ry="3.02"/><ellipse cx="400.998" cy="221.307" rx="2.978" ry="3.02"/><ellipse cx="400.998" cy="230.366" rx="2.978" ry="3.02"/><ellipse cx="400.998" cy="239.425" rx="2.978" ry="3.02"/><ellipse cx="410.092" cy="67.3" rx="2.821" ry="3.02"/><ellipse cx="410.092" cy="76.359" rx="2.821" ry="3.02"/><ellipse cx="410.092" cy="85.418" rx="2.821" ry="3.02"/><ellipse cx="410.092" cy="94.477" rx="2.821" ry="3.02"/><ellipse cx="410.092" cy="103.537" rx="2.821" ry="3.02"/><ellipse cx="410.092" cy="112.596" rx="2.821" ry="3.02"/><ellipse cx="410.092" cy="121.655" rx="2.821" ry="3.02"/><ellipse cx="410.092" cy="130.714" rx="2.821" ry="3.02"/><ellipse cx="410.092" cy="139.773" rx="2.821" ry="3.02"/><ellipse cx="410.092" cy="148.833" rx="2.821" ry="3.02"/><ellipse cx="410.092" cy="157.892" rx="2.821" ry="3.02"/><ellipse cx="410.092" cy="166.951" rx="2.821" ry="3.02"/><ellipse cx="410.092" cy="176.01" rx="2.821" ry="3.02"/><ellipse cx="410.092" cy="185.07" rx="2.821" ry="3.02"/><ellipse cx="410.092" cy="194.129" rx="2.821" ry="3.02"/><ellipse cx="410.092" cy="203.188" rx="2.821" ry="3.02"/><ellipse cx="410.092" cy="212.247" rx="2.821" ry="3.02"/><ellipse cx="410.092" cy="221.307" rx="2.821" ry="3.02"/><ellipse cx="410.092" cy="230.366" rx="2.821" ry="3.02"/><ellipse cx="410.092" cy="257.544" rx="2.821" ry="3.02"/><ellipse cx="410.092" cy="266.603" rx="2.821" ry="3.02"/><ellipse cx="419.028" cy="67.295" rx="2.821" ry="3.015"/><ellipse cx="419.028" cy="76.341" rx="2.821" ry="3.015"/><ellipse cx="419.028" cy="85.387" rx="2.821" ry="3.015"/><ellipse cx="419.028" cy="94.433" rx="2.821" ry="3.015"/><ellipse cx="419.028" cy="103.48" rx="2.821" ry="3.015"/><ellipse cx="419.028" cy="112.526" rx="2.821" ry="3.015"/><ellipse cx="419.028" cy="121.572" rx="2.821" ry="3.015"/><ellipse cx="419.028" cy="130.618" rx="2.821" ry="3.015"/><ellipse cx="419.028" cy="139.664" rx="2.821" ry="3.015"/><ellipse cx="419.028" cy="148.711" rx="2.821" ry="3.015"/><ellipse cx="419.028" cy="157.757" rx="2.821" ry="3.015"/><ellipse cx="419.028" cy="166.803" rx="2.821" ry="3.015"/><ellipse cx="419.028" cy="175.849" rx="2.821" ry="3.015"/><ellipse cx="419.028" cy="184.895" rx="2.821" ry="3.015"/><ellipse cx="419.028" cy="193.941" rx="2.821" ry="3.015"/><ellipse cx="427.965" cy="48.096" rx="2.821" ry="3.018"/><ellipse cx="427.965" cy="66.201" rx="2.821" ry="3.018"/><ellipse cx="427.965" cy="75.254" rx="2.821" ry="3.018"/><ellipse cx="427.965" cy="84.306" rx="2.821" ry="3.018"/><ellipse cx="427.965" cy="93.359" rx="2.821" ry="3.018"/><ellipse cx="427.965" cy="102.412" rx="2.821" ry="3.018"/><ellipse cx="427.965" cy="111.465" rx="2.821" ry="3.018"/><ellipse cx="427.965" cy="120.517" rx="2.821" ry="3.018"/><ellipse cx="427.965" cy="129.57" rx="2.821" ry="3.018"/><ellipse cx="427.965" cy="156.729" rx="2.821" ry="3.018"/><ellipse cx="427.965" cy="165.781" rx="2.821" ry="3.018"/><ellipse cx="427.965" cy="174.834" rx="2.821" ry="3.018"/><ellipse cx="427.965" cy="183.887" rx="2.821" ry="3.018"/><ellipse cx="427.965" cy="192.939" rx="2.821" ry="3.018"/><ellipse cx="436.901" cy="39.157" rx="2.821" ry="3.011"/><ellipse cx="436.901" cy="48.189" rx="2.821" ry="3.011"/><ellipse cx="436.901" cy="66.254" rx="2.821" ry="3.011"/><ellipse cx="436.901" cy="75.287" rx="2.821" ry="3.011"/><ellipse cx="436.901" cy="84.319" rx="2.821" ry="3.011"/><ellipse cx="436.901" cy="93.352" rx="2.821" ry="3.011"/><ellipse cx="436.901" cy="102.384" rx="2.821" ry="3.011"/><ellipse cx="436.901" cy="111.417" rx="2.821" ry="3.011"/><ellipse cx="436.901" cy="120.449" rx="2.821" ry="3.011"/><ellipse cx="436.901" cy="129.482" rx="2.821" ry="3.011"/><ellipse cx="436.901" cy="138.514" rx="2.821" ry="3.011"/><ellipse cx="436.901" cy="147.547" rx="2.821" ry="3.011"/><ellipse cx="436.901" cy="156.58" rx="2.821" ry="3.011"/><ellipse cx="436.901" cy="165.612" rx="2.821" ry="3.011"/><ellipse cx="436.901" cy="174.644" rx="2.821" ry="3.011"/><ellipse cx="436.901" cy="183.677" rx="2.821" ry="3.011"/><ellipse cx="446.995" cy="39.257" rx="2.978" ry="3.011"/><ellipse cx="446.995" cy="66.355" rx="2.978" ry="3.011"/><ellipse cx="446.995" cy="75.387" rx="2.978" ry="3.011"/><ellipse cx="446.995" cy="84.419" rx="2.978" ry="3.011"/><ellipse cx="446.995" cy="93.452" rx="2.978" ry="3.011"/><ellipse cx="446.995" cy="102.485" rx="2.978" ry="3.011"/><ellipse cx="446.995" cy="111.517" rx="2.978" ry="3.011"/><ellipse cx="446.995" cy="120.55" rx="2.978" ry="3.011"/><ellipse cx="446.995" cy="129.582" rx="2.978" ry="3.011"/><ellipse cx="446.995" cy="138.615" rx="2.978" ry="3.011"/><ellipse cx="446.995" cy="147.647" rx="2.978" ry="3.011"/><ellipse cx="446.995" cy="156.68" rx="2.978" ry="3.011"/><ellipse cx="446.995" cy="165.712" rx="2.978" ry="3.011"/><ellipse cx="446.995" cy="174.745" rx="2.978" ry="3.011"/><ellipse cx="455.09" cy="66.355" rx="2.821" ry="3.011"/><ellipse cx="455.09" cy="75.387" rx="2.821" ry="3.011"/><ellipse cx="455.09" cy="84.419" rx="2.821" ry="3.011"/><ellipse cx="455.09" cy="93.452" rx="2.821" ry="3.011"/><ellipse cx="455.09" cy="102.485" rx="2.821" ry="3.011"/><ellipse cx="455.09" cy="111.517" rx="2.821" ry="3.011"/><ellipse cx="455.09" cy="120.55" rx="2.821" ry="3.011"/><ellipse cx="455.09" cy="129.582" rx="2.821" ry="3.011"/><ellipse cx="455.09" cy="138.615" rx="2.821" ry="3.011"/><ellipse cx="455.09" cy="147.647" rx="2.821" ry="3.011"/><ellipse cx="455.09" cy="156.68" rx="2.821" ry="3.011"/><ellipse cx="455.09" cy="165.712" rx="2.821" ry="3.011"/><ellipse cx="455.09" cy="174.745" rx="2.821" ry="3.011"/><ellipse cx="464.026" cy="48.091" rx="2.821" ry="3.013"/><ellipse cx="464.026" cy="57.13" rx="2.821" ry="3.013"/><ellipse cx="464.026" cy="66.169" rx="2.821" ry="3.013"/><ellipse cx="464.026" cy="75.208" rx="2.821" ry="3.013"/><ellipse cx="464.026" cy="84.246" rx="2.821" ry="3.013"/><ellipse cx="464.026" cy="93.285" rx="2.821" ry="3.013"/><ellipse cx="464.026" cy="102.324" rx="2.821" ry="3.013"/><ellipse cx="464.026" cy="111.363" rx="2.821" ry="3.013"/><ellipse cx="464.026" cy="120.402" rx="2.821" ry="3.013"/><ellipse cx="464.026" cy="129.441" rx="2.821" ry="3.013"/><ellipse cx="464.026" cy="138.48" rx="2.821" ry="3.013"/><ellipse cx="464.026" cy="147.519" rx="2.821" ry="3.013"/><ellipse cx="464.026" cy="156.558" rx="2.821" ry="3.013"/><ellipse cx="464.026" cy="165.597" rx="2.821" ry="3.013"/><ellipse cx="464.026" cy="174.636" rx="2.821" ry="3.013"/><ellipse cx="464.026" cy="183.675" rx="2.821" ry="3.013"/><ellipse cx="472.962" cy="48.096" rx="2.821" ry="3.018"/><ellipse cx="472.962" cy="57.148" rx="2.821" ry="3.018"/><ellipse cx="472.962" cy="66.201" rx="2.821" ry="3.018"/><ellipse cx="472.962" cy="75.254" rx="2.821" ry="3.018"/><ellipse cx="472.962" cy="84.306" rx="2.821" ry="3.018"/><ellipse cx="472.962" cy="93.359" rx="2.821" ry="3.018"/><ellipse cx="472.962" cy="102.412" rx="2.821" ry="3.018"/><ellipse cx="472.962" cy="111.465" rx="2.821" ry="3.018"/><ellipse cx="472.962" cy="120.517" rx="2.821" ry="3.018"/><ellipse cx="472.962" cy="129.57" rx="2.821" ry="3.018"/><ellipse cx="472.962" cy="138.623" rx="2.821" ry="3.018"/><ellipse cx="472.962" cy="147.676" rx="2.821" ry="3.018"/><ellipse cx="472.962" cy="156.729" rx="2.821" ry="3.018"/><ellipse cx="472.962" cy="165.781" rx="2.821" ry="3.018"/><ellipse cx="472.962" cy="174.834" rx="2.821" ry="3.018"/><ellipse cx="472.962" cy="183.887" rx="2.821" ry="3.018"/><ellipse cx="472.962" cy="192.939" rx="2.821" ry="3.018"/><ellipse cx="482.899" cy="48.091" rx="2.821" ry="3.013"/><ellipse cx="482.899" cy="57.131" rx="2.821" ry="3.013"/><ellipse cx="482.899" cy="66.171" rx="2.821" ry="3.013"/><ellipse cx="482.899" cy="75.211" rx="2.821" ry="3.013"/><ellipse cx="482.899" cy="84.25" rx="2.821" ry="3.013"/><ellipse cx="482.899" cy="93.29" rx="2.821" ry="3.013"/><ellipse cx="482.899" cy="102.33" rx="2.821" ry="3.013"/><ellipse cx="482.899" cy="111.37" rx="2.821" ry="3.013"/><ellipse cx="482.899" cy="120.409" rx="2.821" ry="3.013"/><ellipse cx="482.899" cy="129.449" rx="2.821" ry="3.013"/><ellipse cx="482.899" cy="138.489" rx="2.821" ry="3.013"/><ellipse cx="482.899" cy="147.529" rx="2.821" ry="3.013"/><ellipse cx="482.899" cy="156.569" rx="2.821" ry="3.013"/><ellipse cx="482.899" cy="165.609" rx="2.821" ry="3.013"/><ellipse cx="482.899" cy="174.648" rx="2.821" ry="3.013"/><ellipse cx="482.899" cy="183.688" rx="2.821" ry="3.013"/><ellipse cx="482.899" cy="192.728" rx="2.821" ry="3.013"/><ellipse cx="482.899" cy="201.768" rx="2.821" ry="3.013"/><ellipse cx="482.899" cy="210.808" rx="2.821" ry="3.013"/><ellipse cx="491.993" cy="39.253" rx="2.978" ry="3.01"/><ellipse cx="491.993" cy="48.282" rx="2.978" ry="3.01"/><ellipse cx="491.993" cy="57.312" rx="2.978" ry="3.01"/><ellipse cx="491.993" cy="66.341" rx="2.978" ry="3.01"/><ellipse cx="491.993" cy="75.37" rx="2.978" ry="3.01"/><ellipse cx="491.993" cy="84.4" rx="2.978" ry="3.01"/><ellipse cx="491.993" cy="93.429" rx="2.978" ry="3.01"/><ellipse cx="491.993" cy="102.459" rx="2.978" ry="3.01"/><ellipse cx="491.993" cy="111.488" rx="2.978" ry="3.01"/><ellipse cx="491.993" cy="120.517" rx="2.978" ry="3.01"/><ellipse cx="491.993" cy="129.547" rx="2.978" ry="3.01"/><ellipse cx="491.993" cy="138.576" rx="2.978" ry="3.01"/><ellipse cx="491.993" cy="147.606" rx="2.978" ry="3.01"/><ellipse cx="491.993" cy="156.635" rx="2.978" ry="3.01"/><ellipse cx="491.993" cy="165.664" rx="2.978" ry="3.01"/><ellipse cx="491.993" cy="174.694" rx="2.978" ry="3.01"/><ellipse cx="491.993" cy="183.723" rx="2.978" ry="3.01"/><ellipse cx="491.993" cy="192.752" rx="2.978" ry="3.01"/><ellipse cx="491.993" cy="210.811" rx="2.978" ry="3.01"/><ellipse cx="500.087" cy="39.249" rx="2.821" ry="3.009"/><ellipse cx="500.087" cy="48.276" rx="2.821" ry="3.009"/><ellipse cx="500.087" cy="57.303" rx="2.821" ry="3.009"/><ellipse cx="500.087" cy="66.33" rx="2.821" ry="3.009"/><ellipse cx="500.087" cy="75.357" rx="2.821" ry="3.009"/><ellipse cx="500.087" cy="84.383" rx="2.821" ry="3.009"/><ellipse cx="500.087" cy="93.41" rx="2.821" ry="3.009"/><ellipse cx="500.087" cy="102.437" rx="2.821" ry="3.009"/><ellipse cx="500.087" cy="111.464" rx="2.821" ry="3.009"/><ellipse cx="500.087" cy="120.491" rx="2.821" ry="3.009"/><ellipse cx="500.087" cy="129.518" rx="2.821" ry="3.009"/><ellipse cx="500.087" cy="138.545" rx="2.821" ry="3.009"/><ellipse cx="500.087" cy="147.572" rx="2.821" ry="3.009"/><ellipse cx="500.087" cy="156.599" rx="2.821" ry="3.009"/><ellipse cx="500.087" cy="165.625" rx="2.821" ry="3.009"/><ellipse cx="500.087" cy="174.652" rx="2.821" ry="3.009"/><ellipse cx="500.087" cy="183.679" rx="2.821" ry="3.009"/><ellipse cx="509.023" cy="39.249" rx="2.821" ry="3.009"/><ellipse cx="509.023" cy="48.276" rx="2.821" ry="3.009"/><ellipse cx="509.023" cy="57.303" rx="2.821" ry="3.009"/><ellipse cx="509.023" cy="66.33" rx="2.821" ry="3.009"/><ellipse cx="509.023" cy="75.357" rx="2.821" ry="3.009"/><ellipse cx="509.023" cy="84.383" rx="2.821" ry="3.009"/><ellipse cx="509.023" cy="93.41" rx="2.821" ry="3.009"/><ellipse cx="509.023" cy="102.437" rx="2.821" ry="3.009"/><ellipse cx="509.023" cy="111.464" rx="2.821" ry="3.009"/><ellipse cx="509.023" cy="120.491" rx="2.821" ry="3.009"/><ellipse cx="509.023" cy="129.518" rx="2.821" ry="3.009"/><ellipse cx="509.023" cy="138.545" rx="2.821" ry="3.009"/><ellipse cx="509.023" cy="147.572" rx="2.821" ry="3.009"/><ellipse cx="509.023" cy="156.599" rx="2.821" ry="3.009"/><ellipse cx="509.023" cy="165.625" rx="2.821" ry="3.009"/><ellipse cx="509.023" cy="174.652" rx="2.821" ry="3.009"/><ellipse cx="509.023" cy="183.679" rx="2.821" ry="3.009"/><ellipse cx="518.96" cy="39.267" rx="2.821" ry="3.013"/><ellipse cx="518.96" cy="48.307" rx="2.821" ry="3.013"/><ellipse cx="518.96" cy="57.346" rx="2.821" ry="3.013"/><ellipse cx="518.96" cy="66.386" rx="2.821" ry="3.013"/><ellipse cx="518.96" cy="75.426" rx="2.821" ry="3.013"/><ellipse cx="518.96" cy="84.466" rx="2.821" ry="3.013"/><ellipse cx="518.96" cy="93.506" rx="2.821" ry="3.013"/><ellipse cx="518.96" cy="102.546" rx="2.821" ry="3.013"/><ellipse cx="518.96" cy="111.585" rx="2.821" ry="3.013"/><ellipse cx="518.96" cy="120.625" rx="2.821" ry="3.013"/><ellipse cx="518.96" cy="129.665" rx="2.821" ry="3.013"/><ellipse cx="518.96" cy="138.705" rx="2.821" ry="3.013"/><ellipse cx="518.96" cy="147.745" rx="2.821" ry="3.013"/><ellipse cx="518.96" cy="156.785" rx="2.821" ry="3.013"/><ellipse cx="518.96" cy="165.824" rx="2.821" ry="3.013"/><ellipse cx="518.96" cy="174.864" rx="2.821" ry="3.013"/><ellipse cx="518.96" cy="183.904" rx="2.821" ry="3.013"/><ellipse cx="518.96" cy="192.943" rx="2.821" ry="3.013"/><ellipse cx="527.896" cy="39.247" rx="2.821" ry="3.008"/><ellipse cx="527.896" cy="48.272" rx="2.821" ry="3.008"/><ellipse cx="527.896" cy="57.296" rx="2.821" ry="3.008"/><ellipse cx="527.896" cy="66.322" rx="2.821" ry="3.008"/><ellipse cx="527.896" cy="75.346" rx="2.821" ry="3.008"/><ellipse cx="527.896" cy="84.371" rx="2.821" ry="3.008"/><ellipse cx="527.896" cy="93.396" rx="2.821" ry="3.008"/><ellipse cx="527.896" cy="102.421" rx="2.821" ry="3.008"/><ellipse cx="527.896" cy="111.446" rx="2.821" ry="3.008"/><ellipse cx="527.896" cy="120.471" rx="2.821" ry="3.008"/><ellipse cx="527.896" cy="129.496" rx="2.821" ry="3.008"/><ellipse cx="527.896" cy="138.521" rx="2.821" ry="3.008"/><ellipse cx="527.896" cy="147.546" rx="2.821" ry="3.008"/><ellipse cx="527.896" cy="156.571" rx="2.821" ry="3.008"/><ellipse cx="527.896" cy="165.596" rx="2.821" ry="3.008"/><ellipse cx="527.896" cy="174.62" rx="2.821" ry="3.008"/><ellipse cx="527.896" cy="183.645" rx="2.821" ry="3.008"/><ellipse cx="527.896" cy="192.67" rx="2.821" ry="3.008"/><ellipse cx="527.896" cy="201.695" rx="2.821" ry="3.008"/><ellipse cx="527.896" cy="210.72" rx="2.821" ry="3.008"/><ellipse cx="527.896" cy="219.745" rx="2.821" ry="3.008"/><ellipse cx="536.99" cy="39.259" rx="2.978" ry="3.012"/><ellipse cx="536.99" cy="48.294" rx="2.978" ry="3.012"/><ellipse cx="536.99" cy="57.328" rx="2.978" ry="3.012"/><ellipse cx="536.99" cy="66.363" rx="2.978" ry="3.012"/><ellipse cx="536.99" cy="75.397" rx="2.978" ry="3.012"/><ellipse cx="536.99" cy="84.431" rx="2.978" ry="3.012"/><ellipse cx="536.99" cy="93.465" rx="2.978" ry="3.012"/><ellipse cx="536.99" cy="102.5" rx="2.978" ry="3.012"/><ellipse cx="536.99" cy="111.534" rx="2.978" ry="3.012"/><ellipse cx="536.99" cy="120.568" rx="2.978" ry="3.012"/><ellipse cx="536.99" cy="129.603" rx="2.978" ry="3.012"/><ellipse cx="536.99" cy="138.637" rx="2.978" ry="3.012"/><ellipse cx="536.99" cy="147.672" rx="2.978" ry="3.012"/><ellipse cx="536.99" cy="156.706" rx="2.978" ry="3.012"/><ellipse cx="536.99" cy="174.774" rx="2.978" ry="3.012"/><ellipse cx="536.99" cy="183.809" rx="2.978" ry="3.012"/><ellipse cx="536.99" cy="192.843" rx="2.978" ry="3.012"/><ellipse cx="536.99" cy="201.878" rx="2.978" ry="3.012"/><ellipse cx="545.085" cy="39.259" rx="2.821" ry="3.012"/><ellipse cx="545.085" cy="48.294" rx="2.821" ry="3.012"/><ellipse cx="545.085" cy="57.328" rx="2.821" ry="3.012"/><ellipse cx="545.085" cy="66.363" rx="2.821" ry="3.012"/><ellipse cx="545.085" cy="75.397" rx="2.821" ry="3.012"/><ellipse cx="545.085" cy="84.431" rx="2.821" ry="3.012"/><ellipse cx="545.085" cy="93.465" rx="2.821" ry="3.012"/><ellipse cx="545.085" cy="102.5" rx="2.821" ry="3.012"/><ellipse cx="545.085" cy="111.534" rx="2.821" ry="3.012"/><ellipse cx="545.085" cy="120.568" rx="2.821" ry="3.012"/><ellipse cx="545.085" cy="129.603" rx="2.821" ry="3.012"/><ellipse cx="545.085" cy="138.637" rx="2.821" ry="3.012"/><ellipse cx="545.085" cy="147.672" rx="2.821" ry="3.012"/><ellipse cx="545.085" cy="156.706" rx="2.821" ry="3.012"/><ellipse cx="545.085" cy="174.774" rx="2.821" ry="3.012"/><ellipse cx="545.085" cy="183.809" rx="2.821" ry="3.012"/><ellipse cx="545.085" cy="192.843" rx="2.821" ry="3.012"/><ellipse cx="545.085" cy="201.878" rx="2.821" ry="3.012"/><ellipse cx="555.021" cy="39.25" rx="2.821" ry="3.009"/><ellipse cx="555.021" cy="48.277" rx="2.821" ry="3.009"/><ellipse cx="555.021" cy="57.304" rx="2.821" ry="3.009"/><ellipse cx="555.021" cy="66.332" rx="2.821" ry="3.009"/><ellipse cx="555.021" cy="75.359" rx="2.821" ry="3.009"/><ellipse cx="555.021" cy="84.386" rx="2.821" ry="3.009"/><ellipse cx="555.021" cy="93.414" rx="2.821" ry="3.009"/><ellipse cx="555.021" cy="102.441" rx="2.821" ry="3.009"/><ellipse cx="555.021" cy="111.468" rx="2.821" ry="3.009"/><ellipse cx="555.021" cy="120.495" rx="2.821" ry="3.009"/><ellipse cx="555.021" cy="129.523" rx="2.821" ry="3.009"/><ellipse cx="555.021" cy="138.55" rx="2.821" ry="3.009"/><ellipse cx="555.021" cy="147.577" rx="2.821" ry="3.009"/><ellipse cx="555.021" cy="156.605" rx="2.821" ry="3.009"/><ellipse cx="555.021" cy="165.632" rx="2.821" ry="3.009"/><ellipse cx="555.021" cy="174.659" rx="2.821" ry="3.009"/><ellipse cx="555.021" cy="210.768" rx="2.821" ry="3.009"/><ellipse cx="555.021" cy="219.796" rx="2.821" ry="3.009"/><ellipse cx="555.021" cy="237.85" rx="2.821" ry="3.009"/><ellipse cx="555.021" cy="246.877" rx="2.821" ry="3.009"/><ellipse cx="563.957" cy="39.155" rx="2.821" ry="3.009"/><ellipse cx="563.957" cy="48.182" rx="2.821" ry="3.009"/><ellipse cx="563.957" cy="57.209" rx="2.821" ry="3.009"/><ellipse cx="563.957" cy="66.237" rx="2.821" ry="3.009"/><ellipse cx="563.957" cy="75.264" rx="2.821" ry="3.009"/><ellipse cx="563.957" cy="84.291" rx="2.821" ry="3.009"/><ellipse cx="563.957" cy="93.318" rx="2.821" ry="3.009"/><ellipse cx="563.957" cy="102.346" rx="2.821" ry="3.009"/><ellipse cx="563.957" cy="111.373" rx="2.821" ry="3.009"/><ellipse cx="563.957" cy="120.4" rx="2.821" ry="3.009"/><ellipse cx="563.957" cy="129.428" rx="2.821" ry="3.009"/><ellipse cx="563.957" cy="138.455" rx="2.821" ry="3.009"/><ellipse cx="563.957" cy="147.482" rx="2.821" ry="3.009"/><ellipse cx="563.957" cy="156.51" rx="2.821" ry="3.009"/><ellipse cx="563.957" cy="165.537" rx="2.821" ry="3.009"/><ellipse cx="563.957" cy="174.564" rx="2.821" ry="3.009"/><ellipse cx="563.957" cy="210.673" rx="2.821" ry="3.009"/><ellipse cx="563.957" cy="219.7" rx="2.821" ry="3.009"/><ellipse cx="563.957" cy="246.782" rx="2.821" ry="3.009"/><ellipse cx="563.957" cy="255.81" rx="2.821" ry="3.009"/><ellipse cx="572.894" cy="48.103" rx="2.821" ry="3.025"/><ellipse cx="572.894" cy="57.176" rx="2.821" ry="3.025"/><ellipse cx="572.894" cy="66.25" rx="2.821" ry="3.025"/><ellipse cx="572.894" cy="75.323" rx="2.821" ry="3.025"/><ellipse cx="572.894" cy="84.396" rx="2.821" ry="3.025"/><ellipse cx="572.894" cy="93.47" rx="2.821" ry="3.025"/><ellipse cx="572.894" cy="102.544" rx="2.821" ry="3.025"/><ellipse cx="572.894" cy="111.617" rx="2.821" ry="3.025"/><ellipse cx="572.894" cy="120.69" rx="2.821" ry="3.025"/><ellipse cx="572.894" cy="129.764" rx="2.821" ry="3.025"/><ellipse cx="572.894" cy="138.838" rx="2.821" ry="3.025"/><ellipse cx="572.894" cy="193.279" rx="2.821" ry="3.025"/><ellipse cx="572.894" cy="202.352" rx="2.821" ry="3.025"/><ellipse cx="572.894" cy="211.426" rx="2.821" ry="3.025"/><ellipse cx="572.894" cy="220.499" rx="2.821" ry="3.025"/><ellipse cx="572.894" cy="238.646" rx="2.821" ry="3.025"/><ellipse cx="572.894" cy="247.72" rx="2.821" ry="3.025"/><ellipse cx="572.894" cy="256.793" rx="2.821" ry="3.025"/><ellipse cx="581.987" cy="48.085" rx="2.978" ry="3.008"/><ellipse cx="581.987" cy="57.108" rx="2.978" ry="3.008"/><ellipse cx="581.987" cy="66.131" rx="2.978" ry="3.008"/><ellipse cx="581.987" cy="75.153" rx="2.978" ry="3.008"/><ellipse cx="581.987" cy="84.175" rx="2.978" ry="3.008"/><ellipse cx="581.987" cy="93.198" rx="2.978" ry="3.008"/><ellipse cx="581.987" cy="102.221" rx="2.978" ry="3.008"/><ellipse cx="581.987" cy="111.243" rx="2.978" ry="3.008"/><ellipse cx="581.987" cy="120.266" rx="2.978" ry="3.008"/><ellipse cx="581.987" cy="129.289" rx="2.978" ry="3.008"/><ellipse cx="581.987" cy="138.311" rx="2.978" ry="3.008"/><ellipse cx="581.987" cy="210.492" rx="2.978" ry="3.008"/><ellipse cx="581.987" cy="237.56" rx="2.978" ry="3.008"/><ellipse cx="581.987" cy="246.582" rx="2.978" ry="3.008"/><ellipse cx="590.082" cy="48.085" rx="2.821" ry="3.008"/><ellipse cx="590.082" cy="57.108" rx="2.821" ry="3.008"/><ellipse cx="590.082" cy="66.131" rx="2.821" ry="3.008"/><ellipse cx="590.082" cy="75.153" rx="2.821" ry="3.008"/><ellipse cx="590.082" cy="84.175" rx="2.821" ry="3.008"/><ellipse cx="590.082" cy="93.198" rx="2.821" ry="3.008"/><ellipse cx="590.082" cy="102.221" rx="2.821" ry="3.008"/><ellipse cx="590.082" cy="111.243" rx="2.821" ry="3.008"/><ellipse cx="590.082" cy="120.266" rx="2.821" ry="3.008"/><ellipse cx="590.082" cy="156.357" rx="2.821" ry="3.008"/><ellipse cx="590.082" cy="237.56" rx="2.821" ry="3.008"/><ellipse cx="590.082" cy="246.582" rx="2.821" ry="3.008"/><ellipse cx="600.019" cy="48.085" rx="2.821" ry="3.008"/><ellipse cx="600.019" cy="57.108" rx="2.821" ry="3.008"/><ellipse cx="600.019" cy="66.131" rx="2.821" ry="3.008"/><ellipse cx="600.019" cy="75.153" rx="2.821" ry="3.008"/><ellipse cx="600.019" cy="84.175" rx="2.821" ry="3.008"/><ellipse cx="600.019" cy="93.198" rx="2.821" ry="3.008"/><ellipse cx="600.019" cy="102.221" rx="2.821" ry="3.008"/><ellipse cx="600.019" cy="111.243" rx="2.821" ry="3.008"/><ellipse cx="600.019" cy="147.334" rx="2.821" ry="3.008"/><ellipse cx="600.019" cy="156.357" rx="2.821" ry="3.008"/><ellipse cx="600.019" cy="237.56" rx="2.821" ry="3.008"/><ellipse cx="608.955" cy="48.085" rx="2.821" ry="3.008"/><ellipse cx="608.955" cy="57.108" rx="2.821" ry="3.008"/><ellipse cx="608.955" cy="66.131" rx="2.821" ry="3.008"/><ellipse cx="608.955" cy="75.153" rx="2.821" ry="3.008"/><ellipse cx="608.955" cy="84.175" rx="2.821" ry="3.008"/><ellipse cx="608.955" cy="93.198" rx="2.821" ry="3.008"/><ellipse cx="608.955" cy="102.221" rx="2.821" ry="3.008"/><ellipse cx="608.955" cy="111.243" rx="2.821" ry="3.008"/><ellipse cx="608.955" cy="129.289" rx="2.821" ry="3.008"/><ellipse cx="608.955" cy="138.311" rx="2.821" ry="3.008"/><ellipse cx="608.955" cy="147.334" rx="2.821" ry="3.008"/><ellipse cx="608.955" cy="246.582" rx="2.821" ry="3.008"/><ellipse cx="608.955" cy="264.628" rx="2.821" ry="3.008"/><ellipse cx="617.891" cy="58.03" rx="2.821" ry="3.02"/><ellipse cx="617.891" cy="67.091" rx="2.821" ry="3.02"/><ellipse cx="617.891" cy="76.151" rx="2.821" ry="3.02"/><ellipse cx="617.891" cy="85.212" rx="2.821" ry="3.02"/><ellipse cx="617.891" cy="121.454" rx="2.821" ry="3.02"/><ellipse cx="617.891" cy="248.303" rx="2.821" ry="3.02"/><ellipse cx="626.985" cy="58.03" rx="2.978" ry="3.02"/><ellipse cx="626.985" cy="67.091" rx="2.978" ry="3.02"/><ellipse cx="626.985" cy="76.151" rx="2.978" ry="3.02"/><ellipse cx="626.985" cy="85.212" rx="2.978" ry="3.02"/><ellipse cx="626.985" cy="248.303" rx="2.978" ry="3.02"/><ellipse cx="626.985" cy="257.364" rx="2.978" ry="3.02"/><ellipse cx="626.985" cy="266.424" rx="2.978" ry="3.02"/><ellipse cx="636.08" cy="58.017" rx="2.821" ry="3.008"/><ellipse cx="636.08" cy="67.04" rx="2.821" ry="3.008"/><ellipse cx="636.08" cy="76.063" rx="2.821" ry="3.008"/><ellipse cx="636.08" cy="85.085" rx="2.821" ry="3.008"/><ellipse cx="636.08" cy="256.515" rx="2.821" ry="3.008"/><ellipse cx="636.08" cy="265.537" rx="2.821" ry="3.008"/><ellipse cx="645.016" cy="58.02" rx="2.821" ry="3.01"/><ellipse cx="645.016" cy="67.051" rx="2.821" ry="3.01"/><ellipse cx="645.016" cy="76.081" rx="2.821" ry="3.01"/><ellipse cx="645.016" cy="85.112" rx="2.821" ry="3.01"/><ellipse cx="645.016" cy="94.143" rx="2.821" ry="3.01"/><ellipse cx="645.016" cy="103.173" rx="2.821" ry="3.01"/><ellipse cx="645.016" cy="112.204" rx="2.821" ry="3.01"/><ellipse cx="645.016" cy="256.694" rx="2.821" ry="3.01"/><ellipse cx="645.016" cy="265.725" rx="2.821" ry="3.01"/><ellipse cx="653.953" cy="58.017" rx="2.821" ry="3.008"/><ellipse cx="653.953" cy="67.04" rx="2.821" ry="3.008"/><ellipse cx="653.953" cy="76.063" rx="2.821" ry="3.008"/><ellipse cx="653.953" cy="85.085" rx="2.821" ry="3.008"/><ellipse cx="653.953" cy="94.108" rx="2.821" ry="3.008"/><ellipse cx="663.889" cy="58.078" rx="2.821" ry="3.068"/><ellipse cx="663.889" cy="67.282" rx="2.821" ry="3.068"/><ellipse cx="663.889" cy="76.485" rx="2.821" ry="3.068"/><ellipse cx="663.889" cy="85.688" rx="2.821" ry="3.068"/><ellipse cx="671.982" cy="58.019" rx="2.978" ry="3.009"/><ellipse cx="671.982" cy="67.046" rx="2.978" ry="3.009"/><ellipse cx="671.982" cy="76.073" rx="2.978" ry="3.009"/><ellipse cx="671.982" cy="85.101" rx="2.978" ry="3.009"/><ellipse cx="681.078" cy="48.089" rx="2.821" ry="3.011"/><ellipse cx="681.078" cy="57.121" rx="2.821" ry="3.011"/><ellipse cx="681.078" cy="66.154" rx="2.821" ry="3.011"/><ellipse cx="681.078" cy="75.187" rx="2.821" ry="3.011"/><ellipse cx="681.078" cy="84.22" rx="2.821" ry="3.011"/><ellipse cx="690.014" cy="48.095" rx="2.821" ry="3.017"/><ellipse cx="690.014" cy="57.147" rx="2.821" ry="3.017"/><ellipse cx="690.014" cy="66.198" rx="2.821" ry="3.017"/><ellipse cx="690.014" cy="75.25" rx="2.821" ry="3.017"/><ellipse cx="690.014" cy="84.301" rx="2.821" ry="3.017"/></g></svg>