<?xml version="1.0" encoding="iso-8859-1"?>
<!-- Generator: Adobe Illustrator 21.0.2, SVG Export Plug-In . SVG Version: 6.00 Build 0)  -->
<!DOCTYPE svg PUBLIC "-//W3C//DTD SVG 1.1//EN" "http://www.w3.org/Graphics/SVG/1.1/DTD/svg11.dtd">
<svg version="1.1" xmlns="http://www.w3.org/2000/svg" xmlns:xlink="http://www.w3.org/1999/xlink" x="0px" y="0px"
	 viewBox="0 0 35 23.379" style="enable-background:new 0 0 35 23.379;" xml:space="preserve">
<g id="icon_x5F_mail">
	<path style="fill:#2A3752;" d="M34.111,0.889C34.703,1.481,35,2.165,35,2.939v17.5c0,0.775-0.297,1.459-0.889,2.051
		c-0.593,0.593-1.276,0.889-2.051,0.889H2.939c-0.775,0-1.459-0.296-2.051-0.889C0.296,21.898,0,21.215,0,20.439v-17.5
		c0-0.774,0.296-1.458,0.889-2.051C1.48,0.297,2.164,0,2.939,0h29.121C32.835,0,33.519,0.297,34.111,0.889z M33.838,2.939
		c0-0.455-0.183-0.865-0.547-1.23c-0.365-0.364-0.775-0.547-1.23-0.547H2.939c-0.456,0-0.866,0.183-1.23,0.547
		c-0.365,0.365-0.547,0.775-0.547,1.23v17.5c0,0.456,0.182,0.866,0.547,1.23c0.364,0.365,0.774,0.547,1.23,0.547h29.121
		c0.455,0,0.865-0.182,1.23-0.547c0.364-0.364,0.547-0.774,0.547-1.23V2.939z M30.215,6.084c0.273,0.365,0.228,0.639-0.137,0.82
		l-12.236,8.203c-0.092,0.046-0.205,0.068-0.342,0.068s-0.251-0.022-0.342-0.068L4.922,6.904c-0.365-0.182-0.41-0.455-0.137-0.82
		c0.228-0.318,0.501-0.364,0.82-0.137l11.895,7.93l11.895-7.93C29.713,5.72,29.986,5.766,30.215,6.084z M11.006,13.672
		c0.182,0.365,0.113,0.639-0.205,0.82l-5.195,3.486c-0.183,0.092-0.297,0.137-0.342,0.137c-0.273,0-0.434-0.091-0.479-0.273
		c-0.229-0.318-0.183-0.592,0.137-0.82l5.264-3.486C10.504,13.308,10.777,13.354,11.006,13.672z M30.078,17.021
		c0.318,0.229,0.364,0.502,0.137,0.82c-0.046,0.183-0.205,0.273-0.479,0.273c-0.046,0-0.16-0.045-0.342-0.137l-5.195-3.486
		c-0.319-0.182-0.388-0.455-0.205-0.82c0.228-0.318,0.501-0.364,0.82-0.137L30.078,17.021z"/>
</g>
<g id="Ebene_1">
</g>
</svg>
