<?xml version="1.0" encoding="iso-8859-1"?>
<!-- Generator: Adobe Illustrator 21.0.2, SVG Export Plug-In . SVG Version: 6.00 Build 0)  -->
<!DOCTYPE svg PUBLIC "-//W3C//DTD SVG 1.1//EN" "http://www.w3.org/Graphics/SVG/1.1/DTD/svg11.dtd">
<svg version="1.1" xmlns="http://www.w3.org/2000/svg" xmlns:xlink="http://www.w3.org/1999/xlink" x="0px" y="0px"
	 viewBox="0 0 33.802 33.77" style="enable-background:new 0 0 33.802 33.77;" xml:space="preserve">
<g id="icon_x5F_phone">
	<path style="fill:#2A3752;" d="M0.921,10.391c-0.729-1.139-1.025-2.393-0.889-3.76s0.684-2.529,1.641-3.486l1.982-1.982
		C4.43,0.388,5.387,0,6.527,0C7.62,0,8.554,0.388,9.329,1.162l3.691,3.623c0.774,0.775,1.162,1.721,1.162,2.837
		c0,1.117-0.388,2.062-1.162,2.837l-0.889,0.82c3.099,3.828,6.563,7.292,10.391,10.391l0.82-0.889
		c0.774-0.774,1.709-1.162,2.803-1.162c1.139,0,2.096,0.388,2.871,1.162l3.623,3.691c0.774,0.775,1.162,1.721,1.162,2.837
		c0,1.117-0.388,2.062-1.162,2.837l-1.982,1.982c-1.094,1.094-2.438,1.641-4.033,1.641c-1.23,0-2.302-0.296-3.213-0.889
		C14.433,26.865,6.937,19.369,0.921,10.391z M1.195,6.733C1.103,7.805,1.354,8.796,1.946,9.707
		c5.833,8.933,13.216,16.315,22.148,22.148c0.684,0.502,1.526,0.752,2.529,0.752c1.185,0,2.256-0.433,3.213-1.299l1.982-1.982
		c0.547-0.592,0.82-1.275,0.82-2.051c0-0.774-0.273-1.436-0.82-1.982l-3.623-3.691c-0.639-0.547-1.322-0.82-2.051-0.82
		c-0.684,0-1.345,0.273-1.982,0.82l-1.23,1.23c-0.229,0.229-0.479,0.251-0.752,0.068c-4.102-3.418-7.861-7.178-11.279-11.279
		c-0.183-0.273-0.16-0.523,0.068-0.752l1.23-1.23c0.547-0.547,0.82-1.219,0.82-2.017c0-0.797-0.273-1.47-0.82-2.017L8.509,1.982
		c-0.547-0.547-1.208-0.82-1.982-0.82c-0.82,0-1.504,0.273-2.051,0.82L2.493,3.965C1.718,4.74,1.285,5.663,1.195,6.733z"/>
</g>
<g id="Ebene_1">
</g>
</svg>
