<?xml version="1.0" encoding="iso-8859-1"?><!-- Generator: Adobe Illustrator 21.1.0, SVG Export Plug-In . SVG Version: 6.00 Build 0)  --><!DOCTYPE svg PUBLIC "-//W3C//DTD SVG 1.1//EN" "http://www.w3.org/Graphics/SVG/1.1/DTD/svg11.dtd"><svg version="1.1" xmlns="http://www.w3.org/2000/svg" xmlns:xlink="http://www.w3.org/1999/xlink" x="0px" y="0px"	 viewBox="0 0 35 33.016" style="enable-background:new 0 0 35 33.016;" xml:space="preserve"><g id="icon_x5F_fax">	<path style="fill:#2A3752;" d="M34.248,14.693C34.749,15.286,35,15.901,35,16.538V26.59c0,0.729-0.297,1.401-0.889,2.017		c-0.593,0.615-1.276,0.923-2.051,0.923H11.179c0,1.003-0.331,1.835-0.991,2.495c-0.661,0.661-1.493,0.991-2.495,0.991H5.811		c-2.324,0-3.486-0.979-3.486-2.939H2.051c-0.593,0-1.083-0.205-1.47-0.615C0.193,29.051,0,28.572,0,28.026V16.538		c0-0.547,0.193-1.025,0.581-1.436c0.387-0.41,0.877-0.615,1.47-0.615h0.273v-1.23c0-1.504,0.774-2.438,2.324-2.803l1.162-0.137		h1.882c1.002,0,1.834,0.331,2.495,0.991c0.66,0.661,0.991,1.493,0.991,2.495h2.324V0H31.5l0.014,3.281v10.523h0.547		C33.018,13.804,33.746,14.101,34.248,14.693z M2.324,28.914V15.65H2.051c-0.593,0-0.889,0.297-0.889,0.889v11.487		c0,0.593,0.296,0.889,0.889,0.889H2.324z M10.017,13.804c0-0.684-0.217-1.241-0.649-1.675c-0.434-0.433-0.991-0.649-1.675-0.649		H5.811c-1.55,0-2.324,0.593-2.324,1.777v16.819c0,1.186,0.774,1.777,2.324,1.777h1.882c0.684,0,1.241-0.216,1.675-0.649		c0.433-0.433,0.649-1.014,0.649-1.743V13.804z M33.838,16.538c0-1.002-0.593-1.504-1.777-1.504H11.179v13.333h20.882		c0.455,0,0.865-0.182,1.23-0.547c0.364-0.364,0.547-0.774,0.547-1.23V16.538z M14.665,13.804h15.686V3.76l-0.008-2.598H14.665		V13.804z M29.121,22.007H15.827v-4.58h13.294V22.007z M16.169,4.648h9.397V3.486h-9.397V4.648z M16.169,9.293H26.7V8.131H16.169		V9.293z M16.169,11.615h11.948v-1.162H16.169V11.615z M16.169,6.973h12.805V5.811H16.169V6.973z M27.959,18.589H16.99v2.256h10.969		V18.589z"/></g><g id="Ebene_1"></g></svg>