<?xml version="1.0" encoding="utf-8"?>
<!-- Generator: Adobe Illustrator 21.1.0, SVG Export Plug-In . SVG Version: 6.00 Build 0)  -->
<svg version="1.1" id="Layer_1" xmlns="http://www.w3.org/2000/svg" xmlns:xlink="http://www.w3.org/1999/xlink" x="0px" y="0px"
	 viewBox="0 0 14 14" style="enable-background:new 0 0 14 14;" xml:space="preserve">
<style type="text/css">
	.st0{fill:#6F84AA;}
</style>
<g id="icon_x5F_watchlist_x5F_outline">
	<g>
		<path class="st0" d="M13.9,5.5L10,8.6l1.7,5.1c0.1,0.1,0,0.2-0.1,0.3c-0.1,0-0.1,0.1-0.2,0.1c0,0-0.1,0-0.2-0.1L7,10.9L2.8,14
			c-0.1,0.1-0.2,0.1-0.3,0s-0.2-0.2-0.1-0.3L4,8.6L0.1,5.5C0,5.4,0,5.3,0,5.2C0,5.1,0.1,5,0.3,5H5l1.7-4.8C6.8,0.1,6.9,0,7,0
			s0.2,0.1,0.3,0.2L9,4.9h4.7c0.1,0,0.2,0.1,0.3,0.2C14,5.3,14,5.4,13.9,5.5z"/>
	</g>
</g>
<g id="Ebene_1">
</g>
</svg>
