<?xml version="1.0" encoding="iso-8859-1"?>
<!-- Generator: Adobe Illustrator 21.0.2, SVG Export Plug-In . SVG Version: 6.00 Build 0)  -->
<!DOCTYPE svg PUBLIC "-//W3C//DTD SVG 1.1//EN" "http://www.w3.org/Graphics/SVG/1.1/DTD/svg11.dtd">
<svg version="1.1" xmlns="http://www.w3.org/2000/svg" xmlns:xlink="http://www.w3.org/1999/xlink" x="0px" y="0px"
	 viewBox="0 0 70 70" style="enable-background:new 0 0 70 70;" xml:space="preserve">
<g id="btn_x5F_add_x5F_picture">
	<g>
		<path style="fill:#E8ECF2;" d="M35,69.5C15.977,69.5,0.5,54.023,0.5,35S15.977,0.5,35,0.5S69.5,15.977,69.5,35
			S54.023,69.5,35,69.5z"/>
		<path style="fill:#C6CDD8;" d="M35,1c18.748,0,34,15.252,34,34S53.748,69,35,69S1,53.748,1,35S16.252,1,35,1 M35,0
			C15.67,0,0,15.67,0,35s15.67,35,35,35s35-15.67,35-35S54.33,0,35,0L35,0z"/>
	</g>
	<g>
		<path style="fill:#2A3752;" d="M20.394,35.375v-3.283h12.864V18.96h3.551v13.132h12.797v3.283H36.81v13.132h-3.551V35.375H20.394z
			"/>
	</g>
</g>
<g id="Ebene_1">
</g>
</svg>
